# File created by Blade
# Date/Time:  Thu Sep 25 19:32:06 2014
# Frame Rate: 120.000 fps
#------------------------------------------------------
:FULLY-SPECIFIED
:DEGREES
3144
root -3.210840 33.053949 -0.690224 -2.968781 -35.948325 12.584807
Spine -1.798020 29.564767 -4.792537
Head -7.681495 61.895774 -10.376087
LeftShoulder -21.515185 21.391415 16.516439
LeftArm 14.353352 -20.276517 -45.041901
LeftForeArm 14.553930 -0.000000 14.415499
LeftHand -30.630734 -0.000000 2.964561
LeftHandThumb1 -26.253704 0.000000 33.147579
RightShoulder -14.402303 17.518048 -23.323490
RightArm -6.015939 -18.500835 86.520535
RightForeArm 11.424840 -0.000000 52.652825
RightHand -0.851326 -0.000000 16.041790
RightHandThumb1 -24.326973 -0.000000 -32.862282
LeftUpLeg -101.141392 -28.582633 -16.143817
LeftLeg 112.255042 -0.000000 -0.000000
LeftFoot 19.087571 3.107881 -16.702859
LeftToeBase 11.504765 -0.000000 -0.000000
RightUpLeg -11.919990 15.139177 -8.391952
RightLeg 26.637652 -0.000000 -0.000000
RightFoot -15.843852 -1.441204 -7.786625
RightToeBase -12.145098 -0.000000 0.000000
3145
root -3.212651 33.057698 -0.683127 -2.967937 -36.069895 12.581584
Spine -1.778762 29.692816 -4.742308
Head -7.617573 62.011480 -10.469653
LeftShoulder -21.556684 21.408893 16.496724
LeftArm 14.287432 -20.263709 -44.998928
LeftForeArm 14.588913 -0.000000 14.411388
LeftHand -30.672258 -0.000000 2.893426
LeftHandThumb1 -26.253704 0.000000 33.147579
RightShoulder -14.449707 17.488455 -23.379492
RightArm -6.030785 -18.516556 86.498776
RightForeArm 11.423775 -0.000000 52.664287
RightHand -0.873776 0.000000 16.115416
RightHandThumb1 -24.326973 -0.000000 -32.862282
LeftUpLeg -101.117241 -28.575683 -16.169975
LeftLeg 112.184409 -0.000000 -0.000000
LeftFoot 19.175980 3.011480 -16.704757
LeftToeBase 11.717835 -0.000000 -0.000000
RightUpLeg -11.947799 15.056694 -8.408100
RightLeg 26.636006 -0.000000 -0.000000
RightFoot -15.813813 -1.189522 -7.766486
RightToeBase -12.138675 -0.000000 0.000000
3146
root -3.213944 33.061948 -0.678128 -2.939113 -36.194377 12.551704
Spine -1.765855 29.790592 -4.650808
Head -7.555681 62.165366 -10.625136
LeftShoulder -21.657703 21.508662 16.418393
LeftArm 14.325059 -20.250147 -44.980920
LeftForeArm 14.437022 -0.000000 14.334365
LeftHand -30.601703 -0.000000 3.057245
LeftHandThumb1 -26.253704 0.000000 33.147579
RightShoulder -14.470179 17.463967 -23.447922
RightArm -6.064755 -18.526996 86.493505
RightForeArm 11.396008 -0.000000 52.697812
RightHand -0.873181 -0.000000 16.053006
RightHandThumb1 -24.326973 -0.000000 -32.862282
LeftUpLeg -101.106794 -28.563241 -16.158787
LeftLeg 112.123692 -0.000000 -0.000000
LeftFoot 19.213976 2.904737 -16.698515
LeftToeBase 11.619331 -0.000000 -0.000000
RightUpLeg -11.994240 14.933849 -8.409025
RightLeg 26.635100 -0.000000 -0.000000
RightFoot -15.769982 -0.886841 -7.694068
RightToeBase -12.206064 -0.000000 0.000000
3147
root -3.213507 33.065467 -0.672787 -2.920917 -36.334886 12.520689
Spine -1.730920 29.901292 -4.521233
Head -7.456967 62.319962 -10.734504
LeftShoulder -21.723460 21.544276 16.368791
LeftArm 14.260928 -20.197956 -44.949449
LeftForeArm 14.521845 -0.000000 14.371519
LeftHand -30.873522 -0.000000 2.964009
LeftHandThumb1 -26.253704 0.000000 33.147579
RightShoulder -14.479264 17.432553 -23.552602
RightArm -6.116194 -18.453234 86.527531
RightForeArm 11.354672 -0.000000 52.741638
RightHand -0.944304 -0.000000 16.117220
RightHandThumb1 -24.326973 -0.000000 -32.862282
LeftUpLeg -101.109545 -28.540779 -16.137803
LeftLeg 112.074087 -0.000000 -0.000000
LeftFoot 19.262018 2.785890 -16.702565
LeftToeBase 11.775373 -0.000000 -0.000000
RightUpLeg -12.042906 14.789780 -8.409516
RightLeg 26.651782 -0.000000 -0.000000
RightFoot -15.742294 -0.541678 -7.592989
RightToeBase -12.228943 -0.000000 0.000000
3148
root -3.210929 33.068722 -0.667040 -2.871295 -36.530973 12.456807
Spine -1.715806 30.056824 -4.335401
Head -7.330526 62.499317 -10.858776
LeftShoulder -21.815815 21.633530 16.306783
LeftArm 14.263858 -20.216783 -44.999889
LeftForeArm 14.561325 -0.000000 14.325672
LeftHand -30.720558 -0.000000 3.066877
LeftHandThumb1 -26.253704 0.000000 33.147579
RightShoulder -14.488395 17.378339 -23.671464
RightArm -6.148631 -18.438253 86.527424
RightForeArm 11.396314 -0.000000 52.800244
RightHand -0.924161 -0.000000 15.981702
RightHandThumb1 -24.326973 -0.000000 -32.862282
LeftUpLeg -101.184416 -28.509214 -16.090848
LeftLeg 112.054597 -0.000000 -0.000000
LeftFoot 19.392431 2.760928 -16.518183
LeftToeBase 11.880325 -0.000000 -0.000000
RightUpLeg -12.120527 14.682413 -8.398170
RightLeg 26.670502 -0.000000 -0.000000
RightFoot -15.732869 -0.110993 -7.394281
RightToeBase -12.081957 -0.000000 0.000000
3149
root -3.209883 33.072497 -0.661355 -2.851246 -36.637082 12.424890
Spine -1.680023 30.102225 -4.184582
Head -7.239995 62.683224 -10.984052
LeftShoulder -21.912147 21.674645 16.250550
LeftArm 14.238720 -20.289394 -45.040993
LeftForeArm 14.562913 -0.000000 14.323207
LeftHand -30.715283 -0.000000 3.144192
LeftHandThumb1 -26.253704 0.000000 33.147579
RightShoulder -14.477845 17.321957 -23.763392
RightArm -6.161228 -18.451675 86.523369
RightForeArm 11.370973 0.000000 52.864730
RightHand -0.915526 0.000000 15.902258
RightHandThumb1 -24.326973 -0.000000 -32.862282
LeftUpLeg -101.197911 -28.545026 -16.048044
LeftLeg 112.005955 -0.000000 -0.000000
LeftFoot 19.408855 2.745095 -16.555635
LeftToeBase 11.868554 -0.000000 -0.000000
RightUpLeg -12.159064 14.462908 -8.406829
RightLeg 26.686953 -0.000000 -0.000000
RightFoot -15.751139 0.332310 -7.204261
RightToeBase -11.910298 -0.000000 0.000000
